<svg width="20" height="20" viewBox="0 0 20 20" fill="none" xmlns="http://www.w3.org/2000/svg">
<mask id="mask0_28_3172" style="mask-type:alpha" maskUnits="userSpaceOnUse" x="1" y="2" width="18" height="16">
<path fill-rule="evenodd" clip-rule="evenodd" d="M14.8702 5.08998C15.2119 5.13693 15.4987 5.2084 15.7612 5.31717C16.7822 5.74006 17.5933 6.5512 18.0162 7.57215C18.3334 8.33783 18.3334 9.30858 18.3334 11.25C18.3334 13.1914 18.3334 14.1622 18.0162 14.9278C17.5933 15.9488 16.7822 16.7599 15.7612 17.1828C14.9956 17.5 14.0248 17.5 12.0834 17.5H7.91675C5.97532 17.5 5.00461 17.5 4.2389 17.1828C3.21795 16.7599 2.40681 15.9488 1.98391 14.9278C1.66675 14.1622 1.66675 13.1914 1.66675 11.25C1.66675 9.30858 1.66675 8.33783 1.98391 7.57215C2.40681 6.5512 3.21795 5.74006 4.2389 5.31717C4.5015 5.2084 4.78821 5.13693 5.12991 5.08998C5.40446 4.12596 5.61366 3.57545 6.01881 3.18961C6.15016 3.06453 6.29471 2.95412 6.44994 2.86032C7.04621 2.5 7.80886 2.5 9.33416 2.5H10.666C12.1913 2.5 12.9539 2.5 13.5502 2.86032C13.7054 2.95412 13.85 3.06453 13.9813 3.18961C14.3865 3.57545 14.5957 4.12596 14.8702 5.08998Z" fill="white"/>
</mask>
<g mask="url(#mask0_28_3172)">
<path d="M14.8702 5.08998L13.6681 5.43235L13.8916 6.21723L14.7001 6.32834L14.8702 5.08998ZM15.7612 5.31717L16.2396 4.16232L15.7612 5.31717ZM18.0162 7.57215L16.8614 8.05051L18.0162 7.57215ZM18.0162 14.9278L16.8614 14.4495L18.0162 14.9278ZM15.7612 17.1828L16.2396 18.3377L15.7612 17.1828ZM4.2389 17.1828L3.76055 18.3377L4.2389 17.1828ZM1.98392 14.9278L3.13877 14.4495L1.98392 14.9278ZM1.98392 7.57215L0.829068 7.0938L1.98392 7.57215ZM4.2389 5.31717L4.71726 6.47202L4.2389 5.31717ZM5.12992 5.08998L5.30009 6.32834L6.10858 6.21723L6.33211 5.43235L5.12992 5.08998ZM6.01882 3.18961L6.88087 4.0948L6.01882 3.18961ZM6.44994 2.86032L7.09642 3.93016L6.44994 2.86032ZM13.5502 2.86032L12.9037 3.93016L13.5502 2.86032ZM13.9813 3.18961L14.8434 2.28441L13.9813 3.18961ZM14.7001 6.32834C14.9647 6.3647 15.1427 6.41395 15.2829 6.47202L16.2396 4.16232C15.8546 4.00285 15.4592 3.90916 15.0404 3.85161L14.7001 6.32834ZM15.2829 6.47202C15.9976 6.76804 16.5653 7.33585 16.8614 8.05051L19.1711 7.0938C18.6213 5.76657 17.5668 4.71208 16.2396 4.16232L15.2829 6.47202ZM16.8614 8.05051C16.9464 8.25567 17.0113 8.53784 17.0467 9.05525C17.0827 9.58392 17.0834 10.2622 17.0834 11.25H19.5834C19.5834 10.2964 19.5841 9.51859 19.5408 8.88509C19.4969 8.24039 19.4032 7.65435 19.1711 7.0938L16.8614 8.05051ZM17.0834 11.25C17.0834 12.2378 17.0827 12.9161 17.0467 13.4448C17.0113 13.9622 16.9464 14.2443 16.8614 14.4495L19.1711 15.4062C19.4032 14.8457 19.4969 14.2596 19.5408 13.6149C19.5841 12.9814 19.5834 12.2036 19.5834 11.25H17.0834ZM16.8614 14.4495C16.5653 15.1642 15.9976 15.7319 15.2829 16.028L16.2396 18.3377C17.5668 17.7879 18.6213 16.7334 19.1711 15.4062L16.8614 14.4495ZM15.2829 16.028C15.0777 16.113 14.7956 16.1779 14.2782 16.2133C13.7495 16.2493 13.0712 16.25 12.0834 16.25V18.75C13.037 18.75 13.8148 18.7507 14.4483 18.7074C15.093 18.6635 15.6791 18.5698 16.2396 18.3377L15.2829 16.028ZM12.0834 16.25H7.91675V18.75H12.0834V16.25ZM7.91675 16.25C6.92893 16.25 6.25067 16.2493 5.72202 16.2133C5.2046 16.1779 4.92242 16.113 4.71726 16.028L3.76055 18.3377C4.3211 18.5698 4.90713 18.6635 5.55185 18.7074C6.18533 18.7507 6.96314 18.75 7.91675 18.75V16.25ZM4.71726 16.028C4.00259 15.7319 3.43479 15.1642 3.13877 14.4495L0.829068 15.4062C1.37882 16.7334 2.43332 17.7879 3.76055 18.3377L4.71726 16.028ZM3.13877 14.4495C3.05379 14.2443 2.9888 13.9622 2.9535 13.4448C2.91742 12.9161 2.91675 12.2378 2.91675 11.25H0.416749C0.416749 12.2036 0.416072 12.9814 0.459295 13.6149C0.503283 14.2596 0.596879 14.8457 0.829068 15.4062L3.13877 14.4495ZM2.91675 11.25C2.91675 10.2622 2.91742 9.58392 2.9535 9.05525C2.9888 8.53784 3.05379 8.25567 3.13877 8.05051L0.829068 7.0938C0.596879 7.65435 0.503283 8.24039 0.459295 8.88509C0.416072 9.51859 0.416749 10.2964 0.416749 11.25H2.91675ZM3.13877 8.05051C3.43479 7.33585 4.00259 6.76804 4.71726 6.47202L3.76055 4.16232C2.43332 4.71208 1.37882 5.76657 0.829068 7.0938L3.13877 8.05051ZM4.71726 6.47202C4.85746 6.41395 5.03546 6.3647 5.30009 6.32834L4.95973 3.85161C4.54096 3.90916 4.14555 4.00285 3.76055 4.16232L4.71726 6.47202ZM6.33211 5.43235C6.61629 4.4345 6.7557 4.214 6.88087 4.0948L5.15677 2.28441C4.47162 2.93691 4.19262 3.81743 3.92772 4.7476L6.33211 5.43235ZM6.88087 4.0948C6.94653 4.03227 7.01881 3.97706 7.09642 3.93016L5.80346 1.79048C5.57062 1.93118 5.35378 2.0968 5.15677 2.28441L6.88087 4.0948ZM7.09642 3.93016C7.17542 3.88242 7.31104 3.82411 7.66657 3.78899C8.04682 3.75142 8.54675 3.75 9.33417 3.75V1.25C8.59625 1.25 7.95222 1.24859 7.42076 1.3011C6.86457 1.35605 6.32073 1.4779 5.80346 1.79048L7.09642 3.93016ZM9.33417 3.75H10.666V1.25H9.33417V3.75ZM10.666 3.75C11.4534 3.75 11.9533 3.75142 12.3336 3.78899C12.6892 3.82411 12.8247 3.88242 12.9037 3.93016L14.1967 1.79048C13.6794 1.4779 13.1356 1.35605 12.5794 1.3011C12.0479 1.24859 11.4039 1.25 10.666 1.25V3.75ZM12.9037 3.93016C12.9813 3.97706 13.0537 4.03227 13.1193 4.09481L14.8434 2.28441C14.6464 2.0968 14.4296 1.93118 14.1967 1.79048L12.9037 3.93016ZM13.1193 4.0948C13.2445 4.214 13.3839 4.4345 13.6681 5.43235L16.0724 4.7476C15.8076 3.81743 15.5286 2.93691 14.8434 2.28441L13.1193 4.0948Z" fill="#FF8D8D"/>
<path d="M12.7084 10.8333C12.7084 9.33756 11.4959 8.125 10.0001 8.125C8.50431 8.125 7.29175 9.33756 7.29175 10.8333C7.29175 12.3291 8.50431 13.5417 10.0001 13.5417C11.4959 13.5417 12.7084 12.3291 12.7084 10.8333Z" stroke="#FF8D8D" stroke-width="1.5"/>
</g>
</svg>
