<svg width="24" height="24" viewBox="0 0 24 24" fill="none" xmlns="http://www.w3.org/2000/svg">
<path d="M5.88707 4.75295C5.57389 4.43977 5.06613 4.43977 4.75295 4.75295C4.43977 5.06613 4.43977 5.57389 4.75295 5.88707L9.38397 10.5181L4.753 15.1491C4.43982 15.4622 4.43982 15.97 4.753 16.2832C5.06618 16.5964 5.57394 16.5964 5.88712 16.2832L10.5181 11.6522L15.1491 16.2832C15.4622 16.5964 15.97 16.5964 16.2832 16.2832C16.5964 15.97 16.5964 15.4622 16.2832 15.1491L11.6522 10.5181L16.2832 5.88707C16.5964 5.57389 16.5964 5.06613 16.2832 4.75295C15.9701 4.43977 15.4623 4.43977 15.1491 4.75295L10.5181 9.38397L5.88707 4.75295Z" fill="#EE6464"/>
</svg>
