<svg width="18" height="15" viewBox="0 0 18 15" fill="none" xmlns="http://www.w3.org/2000/svg">
<path d="M1.51938 11.375H0.875C0.6925 11.375 0.542708 11.3165 0.425625 11.1994C0.308542 11.0823 0.25 10.9325 0.25 10.75V1.375C0.25 1.1925 0.308542 1.04271 0.425625 0.925625C0.542708 0.808542 0.6925 0.75 0.875 0.75H12.125C12.3075 0.75 12.4573 0.808542 12.5744 0.925625C12.6915 1.04271 12.75 1.1925 12.75 1.375V3.25H15.9725C16.1288 3.25 16.2623 3.29875 16.3731 3.39625C16.484 3.49375 16.5523 3.62063 16.5781 3.77688L17.6331 10.6519C17.6594 10.8473 17.6106 11.0167 17.4869 11.16C17.3631 11.3033 17.2102 11.375 17.0281 11.375H15.2312C15.2833 11.9221 15.1954 12.4331 14.9675 12.9081C14.7396 13.3831 14.3946 13.7673 13.9325 14.0606C13.4704 14.354 12.9723 14.5004 12.4381 14.5C11.904 14.4996 11.4058 14.3531 10.9438 14.0606C10.4817 13.7681 10.1367 13.384 9.90875 12.9081C9.68083 12.4323 9.59292 11.9213 9.645 11.375H7.10562C7.15771 11.9221 7.06979 12.4331 6.84187 12.9081C6.61396 13.3831 6.26896 13.7673 5.80687 14.0606C5.34479 14.354 4.84667 14.5004 4.3125 14.5C3.77833 14.4996 3.28021 14.3531 2.81813 14.0606C2.35604 13.7681 2.01104 13.384 1.78313 12.9081C1.55521 12.4323 1.46729 11.9213 1.51938 11.375V11.375ZM1.96875 10.125C2.24208 9.73417 2.58062 9.42813 2.98438 9.20688C3.38813 8.98563 3.83083 8.875 4.3125 8.875C4.79417 8.875 5.23687 8.98563 5.64062 9.20688C6.04438 9.42813 6.38292 9.73417 6.65625 10.125H10.0938C10.4454 9.61708 10.9142 9.2525 11.5 9.03125V2H1.5V10.125H1.96875ZM14.7812 10.125H16.285L15.9138 7.625H12.7494V8.89438C13.166 8.94646 13.5502 9.07667 13.9019 9.285C14.2535 9.49333 14.5465 9.77333 14.7806 10.125H14.7812ZM15.7188 6.375L15.4256 4.5H12.75V6.375H15.7188ZM12.4375 13.25C12.8804 13.2371 13.2483 13.0842 13.5413 12.7913C13.8342 12.4983 13.9806 12.1304 13.9806 11.6875C13.9806 11.2446 13.8342 10.8767 13.5413 10.5838C13.2483 10.2908 12.8804 10.1444 12.4375 10.1444C11.9946 10.1444 11.6267 10.2908 11.3337 10.5838C11.0408 10.8767 10.8944 11.2446 10.8944 11.6875C10.8944 12.1304 11.0408 12.4983 11.3337 12.7913C11.6267 13.0842 11.9946 13.2371 12.4375 13.25ZM4.3125 13.25C4.75542 13.2371 5.12333 13.0842 5.41625 12.7913C5.70917 12.4983 5.85562 12.1304 5.85562 11.6875C5.85562 11.2446 5.70917 10.8767 5.41625 10.5838C5.12333 10.2908 4.75542 10.1444 4.3125 10.1444C3.86958 10.1444 3.50167 10.2908 3.20875 10.5838C2.91583 10.8767 2.76938 11.2446 2.76938 11.6875C2.76938 12.1304 2.91583 12.4983 3.20875 12.7913C3.50167 13.0842 3.86958 13.2371 4.3125 13.25Z" fill="#E57D7D" fill-opacity="0.96"/>
</svg>
