<svg width="15" height="17" viewBox="0 0 15 17" fill="none" xmlns="http://www.w3.org/2000/svg">
<path d="M14.7884 12.8129L10.8497 8.4995L14.7872 4.18654C14.826 4.14406 14.8567 4.09363 14.8777 4.03812C14.8987 3.98262 14.9095 3.92313 14.9095 3.86305C14.9095 3.80297 14.8987 3.74348 14.8777 3.68797C14.8567 3.63247 14.826 3.58203 14.7872 3.53955L12.0288 0.517814C11.9505 0.431998 11.8442 0.383789 11.7334 0.383789C11.6225 0.383789 11.5163 0.431998 11.4379 0.517814L7.49976 4.83077L3.56226 0.517814C3.4056 0.346004 3.12819 0.346004 2.97132 0.517814L0.212339 3.53909C0.134089 3.62499 0.0901429 3.74137 0.0901429 3.8627C0.0901429 3.98404 0.134089 4.10042 0.212339 4.18631L4.15047 8.4995L0.211709 12.8132C0.13351 12.8991 0.0895996 13.0154 0.0895996 13.1368C0.0895996 13.2581 0.13351 13.3745 0.211709 13.4604L2.97027 16.4819C3.00905 16.5244 3.0551 16.5582 3.1058 16.5812C3.1565 16.6042 3.21085 16.6161 3.26574 16.6161C3.32063 16.6161 3.37498 16.6042 3.42568 16.5812C3.47638 16.5582 3.52243 16.5244 3.56121 16.4819L7.49976 12.1682L11.4385 16.4817C11.5202 16.5709 11.6267 16.6157 11.734 16.6157C11.8413 16.6157 11.948 16.5709 12.0297 16.4817L14.7886 13.4601C14.867 13.3743 14.911 13.2579 14.9109 13.1365C14.9109 13.0151 14.8668 12.8987 14.7884 12.8129Z" fill="black"/>
</svg>
