<svg width="23" height="23" viewBox="0 0 23 23" fill="none" xmlns="http://www.w3.org/2000/svg">
<g clip-path="url(#clip0_6_807)">
<path d="M22.9878 11.7151C22.9878 10.7728 22.9095 10.0852 22.7402 9.37207H11.729V13.6251H18.1923C18.0621 14.6821 17.3584 16.2738 15.7946 17.3434L15.7727 17.4858L19.2543 20.1214L19.4955 20.1449C21.7107 18.1457 22.9878 15.2041 22.9878 11.7151Z" fill="#4285F4"/>
<path d="M11.7291 22.9209C14.8956 22.9209 17.5539 21.9021 19.4956 20.1449L15.7948 17.3434C14.8044 18.0183 13.4753 18.4895 11.7291 18.4895C8.62779 18.4895 5.99555 16.4903 5.05723 13.7271L4.91969 13.7385L1.29954 16.4763L1.2522 16.6049C3.18076 20.3486 7.1422 22.9209 11.7291 22.9209Z" fill="#34A853"/>
<path d="M5.0572 13.7272C4.80961 13.0141 4.66633 12.25 4.66633 11.4605C4.66633 10.671 4.80961 9.90698 5.04417 9.1939L5.03761 9.04203L1.37209 6.26025L1.25217 6.316C0.45731 7.86955 0.0012207 9.61413 0.0012207 11.4605C0.0012207 13.3069 0.45731 15.0514 1.25217 16.605L5.0572 13.7272Z" fill="#FBBC05"/>
<path d="M11.7291 4.43136C13.9314 4.43136 15.4169 5.36093 16.2639 6.13775L19.5738 2.97973C17.541 1.13332 14.8956 0 11.7291 0C7.1422 0 3.18076 2.57222 1.2522 6.31596L5.0442 9.19385C5.99555 6.4306 8.62779 4.43136 11.7291 4.43136Z" fill="#EB4335"/>
</g>
<defs>
<clipPath id="clip0_6_807">
<rect width="23" height="23" fill="white"/>
</clipPath>
</defs>
</svg>
