<svg width="33" height="36" viewBox="0 0 33 36" fill="none" xmlns="http://www.w3.org/2000/svg">
<path d="M22.9453 3.9375C20.3556 3.9375 18.0572 5.05266 16.5 6.96938C14.9428 5.05266 12.6444 3.9375 10.0547 3.9375C7.79911 3.94048 5.6367 4.91928 4.04177 6.6592C2.44684 8.39913 1.5496 10.7581 1.54688 13.2188C1.54688 23.3916 15.1864 31.5197 15.7665 31.8614C15.9919 31.9938 16.244 32.0632 16.5 32.0632C16.756 32.0632 17.0081 31.9938 17.2335 31.8614C17.8136 31.5197 31.4531 23.3916 31.4531 13.2188C31.4504 10.7581 30.5532 8.39913 28.9582 6.6592C27.3633 4.91928 25.2009 3.94048 22.9453 3.9375ZM22.2376 23.9569C20.4423 25.6188 18.5231 27.1146 16.5 28.4288C14.4769 27.1146 12.5577 25.6188 10.7624 23.9569C7.96898 21.3427 4.64062 17.3559 4.64062 13.2188C4.64062 11.6523 5.21103 10.15 6.22637 9.0424C7.2417 7.93476 8.61879 7.3125 10.0547 7.3125C12.3492 7.3125 14.2699 8.63438 15.0679 10.7634C15.184 11.0738 15.3822 11.3394 15.6373 11.5264C15.8924 11.7133 16.1927 11.8132 16.5 11.8132C16.8073 11.8132 17.1076 11.7133 17.3627 11.5264C17.6178 11.3394 17.816 11.0738 17.9321 10.7634C18.7301 8.63438 20.6508 7.3125 22.9453 7.3125C24.3812 7.3125 25.7583 7.93476 26.7736 9.0424C27.789 10.15 28.3594 11.6523 28.3594 13.2188C28.3594 17.3559 25.031 21.3427 22.2376 23.9569Z" fill="#777777"/>
</svg>
