<svg width="212" height="184" viewBox="0 0 212 184" fill="none" xmlns="http://www.w3.org/2000/svg">
<g filter="url(#filter0_d_314_854)">
<path opacity="0.2" d="M204 16V138.06L164.28 98.34C162.78 96.8408 160.746 95.9987 158.625 95.9987C156.504 95.9987 154.47 96.8408 152.97 98.34L127.31 124L77.66 74.34C76.917 73.5962 76.0347 73.0061 75.0635 72.6035C74.0923 72.2009 73.0513 71.9937 72 71.9937C70.9487 71.9937 69.9077 72.2009 68.9365 72.6035C67.9653 73.0061 67.083 73.5962 66.34 74.34L12 128.69V16C12 13.8783 12.8429 11.8434 14.3431 10.3431C15.8434 8.84286 17.8783 8 20 8H196C198.122 8 200.157 8.84286 201.657 10.3431C203.157 11.8434 204 13.8783 204 16Z" fill="#E29797"/>
<path d="M196 0H20C15.7565 0 11.6869 1.68571 8.68629 4.68629C5.68571 7.68687 4 11.7565 4 16V160C4 164.243 5.68571 168.313 8.68629 171.314C11.6869 174.314 15.7565 176 20 176H196C200.243 176 204.313 174.314 207.314 171.314C210.314 168.313 212 164.243 212 160V16C212 11.7565 210.314 7.68687 207.314 4.68629C204.313 1.68571 200.243 0 196 0ZM196 16V118.75L169.93 92.69C168.444 91.2039 166.68 90.025 164.739 89.2207C162.797 88.4164 160.716 88.0024 158.615 88.0024C156.514 88.0024 154.433 88.4164 152.491 89.2207C150.55 90.025 148.786 91.2039 147.3 92.69L127.3 112.69L83.3 68.69C80.2997 65.6917 76.2316 64.0074 71.99 64.0074C67.7484 64.0074 63.6803 65.6917 60.68 68.69L20 109.37V16H196ZM20 132L72 80L152 160H20V132ZM196 160H174.63L138.63 124L158.63 104L196 141.38V160ZM124 60C124 57.6266 124.704 55.3065 126.022 53.3332C127.341 51.3598 129.215 49.8217 131.408 48.9134C133.601 48.0052 136.013 47.7676 138.341 48.2306C140.669 48.6936 142.807 49.8365 144.485 51.5147C146.163 53.1929 147.306 55.3311 147.769 57.6589C148.232 59.9867 147.995 62.3995 147.087 64.5922C146.178 66.7849 144.64 68.6591 142.667 69.9776C140.693 71.2962 138.373 72 136 72C132.817 72 129.765 70.7357 127.515 68.4853C125.264 66.2348 124 63.1826 124 60Z" fill="#E29797"/>
</g>
<defs>
<filter id="filter0_d_314_854" x="0" y="0" width="216" height="184" filterUnits="userSpaceOnUse" color-interpolation-filters="sRGB">
<feFlood flood-opacity="0" result="BackgroundImageFix"/>
<feColorMatrix in="SourceAlpha" type="matrix" values="0 0 0 0 0 0 0 0 0 0 0 0 0 0 0 0 0 0 127 0" result="hardAlpha"/>
<feOffset dy="4"/>
<feGaussianBlur stdDeviation="2"/>
<feComposite in2="hardAlpha" operator="out"/>
<feColorMatrix type="matrix" values="0 0 0 0 0 0 0 0 0 0 0 0 0 0 0 0 0 0 0.25 0"/>
<feBlend mode="normal" in2="BackgroundImageFix" result="effect1_dropShadow_314_854"/>
<feBlend mode="normal" in="SourceGraphic" in2="effect1_dropShadow_314_854" result="shape"/>
</filter>
</defs>
</svg>
