<svg width="92" height="20" viewBox="0 0 92 20" fill="none" xmlns="http://www.w3.org/2000/svg">
<path fill-rule="evenodd" clip-rule="evenodd" d="M35.1716 5.65731H43.0306L39.1631 18.4955H44.6023L48.4699 5.65731H54.8157L56.2766 4.1288H51.1373L51.8156 3.4159H56.9679L57.6984 2.65467H52.4221L53.1004 1.64573H58.6636L59.5115 0.763672H37.5913L35.1716 5.65731Z" fill="#ED3237"/>
<path fill-rule="evenodd" clip-rule="evenodd" d="M14.8765 18.6706H0L2.28268 15.2511L10.8395 15.2995L14.733 0.896484H19.6962L15.7244 15.2995L14.8765 18.6706Z" fill="#ED3237"/>
<path fill-rule="evenodd" clip-rule="evenodd" d="M37.9975 18.4903H33.1713L32.343 17.6385C30.0408 18.9132 27.2885 19.5597 24.5493 19.1851C21.1774 18.5688 19.1491 16.6718 19.4361 13.5725C19.8861 11.4096 20.91 9.60323 22.4231 8.10493C20.734 4.96938 21.3535 2.8186 22.4362 0.867188H34.1039L32.1539 4.98751C30.6408 2.16007 25.8537 2.87297 26.0428 6.65497L31.756 12.5092C32.2452 11.9534 32.7408 10.6847 33.23 9.24678L36.817 10.9022C36.2757 12.4246 35.6561 13.941 34.8083 15.2098L34.8213 15.2218L37.9975 18.4903ZM29.4929 14.6962L25.071 10.437C20.4796 13.5181 25.1363 18.5447 29.4929 14.6962Z" fill="#ED3237"/>
<path fill-rule="evenodd" clip-rule="evenodd" d="M56.8386 11.777C56.8386 11.8012 56.8386 11.8375 56.8321 11.8918C56.8255 11.9402 56.819 12.0006 56.806 12.067C56.7929 12.1275 56.7799 12.1939 56.7603 12.2664C56.7408 12.3389 56.7212 12.3993 56.6886 12.4597C56.6625 12.5141 56.6299 12.5624 56.5907 12.6047C56.5516 12.641 56.506 12.6591 56.4603 12.6591H53.8581L53.4994 14.3084H55.7103C55.7625 14.3084 55.8016 14.3266 55.8212 14.3568C55.8472 14.393 55.8603 14.4414 55.8603 14.5018C55.8603 14.532 55.8538 14.5682 55.8538 14.6166C55.8472 14.6649 55.8342 14.7253 55.8212 14.7918C55.8146 14.8522 55.8016 14.9186 55.782 14.9851C55.7625 15.0516 55.7364 15.112 55.7103 15.1663C55.6842 15.2207 55.6451 15.2691 55.6125 15.3053C55.5733 15.3355 55.5342 15.3536 55.4885 15.3536H53.2776L52.8667 17.2567H55.5016C55.5472 17.2567 55.5864 17.2748 55.6059 17.3171C55.6255 17.3473 55.6385 17.4017 55.6385 17.4742C55.6385 17.4984 55.6385 17.5346 55.632 17.589C55.632 17.6434 55.619 17.7038 55.6059 17.7642C55.5929 17.8307 55.5798 17.8971 55.5603 17.9636C55.5407 18.03 55.5212 18.0904 55.4885 18.1509C55.4625 18.2052 55.4298 18.2536 55.3907 18.2898C55.3516 18.32 55.3124 18.3381 55.2668 18.3381H51.5949C51.5362 18.3381 51.4841 18.3321 51.4319 18.314C51.3797 18.3019 51.3406 18.2717 51.3145 18.2354C51.2819 18.1992 51.2558 18.1569 51.2493 18.1025C51.2362 18.0482 51.2362 17.9817 51.2493 17.9032L52.5211 12.0127C52.5537 11.8616 52.6254 11.7468 52.7298 11.6804C52.8276 11.6139 52.945 11.5777 53.0689 11.5777H56.6951C56.7929 11.5777 56.8386 11.6441 56.8386 11.777ZM61.0061 14.8522L62.1279 17.8065C62.167 17.9334 62.1931 18.03 62.1996 18.1086C62.2061 18.1811 62.18 18.2415 62.1279 18.2777C62.0757 18.32 61.9909 18.3442 61.8735 18.3563C61.7496 18.3684 61.5865 18.3684 61.3713 18.3684C61.2148 18.3684 61.0974 18.3684 61.0061 18.3623C60.9148 18.3563 60.8496 18.3442 60.7974 18.3261C60.7452 18.3079 60.7126 18.2898 60.693 18.2596C60.667 18.2354 60.6539 18.1992 60.6343 18.1569L59.7474 15.698L57.8756 18.1569C57.843 18.1992 57.8103 18.2354 57.7712 18.2596C57.7386 18.2898 57.6864 18.3079 57.6212 18.3261C57.556 18.3442 57.4647 18.3563 57.3603 18.3623C57.2495 18.3684 57.1125 18.3684 56.9429 18.3684C56.7473 18.3684 56.5907 18.3684 56.4799 18.3563C56.369 18.3442 56.2907 18.32 56.2581 18.2838C56.2255 18.2475 56.2255 18.1871 56.2647 18.1146C56.2973 18.0421 56.3625 17.9454 56.4603 17.8246L58.8604 14.8461L57.843 12.0973C57.8038 11.9764 57.7777 11.8798 57.7712 11.8012C57.7647 11.7287 57.7908 11.6743 57.843 11.6381C57.8886 11.5958 57.9734 11.5716 58.0973 11.5656C58.2147 11.5535 58.3843 11.5475 58.593 11.5475C58.7495 11.5475 58.8799 11.5535 58.9713 11.5596C59.0626 11.5656 59.1343 11.5777 59.1865 11.5958C59.2387 11.6139 59.2778 11.6381 59.2974 11.6683C59.3234 11.6985 59.343 11.7408 59.356 11.7891L60.1322 13.9943L61.8409 11.7589C61.867 11.7227 61.8996 11.6864 61.9387 11.6562C61.9713 11.6321 62.017 11.6079 62.0757 11.5898C62.1409 11.5777 62.2192 11.5656 62.317 11.5596C62.4148 11.5535 62.5453 11.5475 62.7083 11.5475C62.917 11.5475 63.0801 11.5535 63.1975 11.5656C63.3149 11.5716 63.3866 11.5958 63.4257 11.6381C63.4583 11.6743 63.4583 11.7287 63.4257 11.8012C63.3931 11.8798 63.3279 11.9764 63.2366 12.0973L61.0061 14.8522ZM69.2042 13.2391C69.2042 13.4324 69.1781 13.6378 69.1324 13.8493C69.0868 14.0607 69.0085 14.2722 68.9042 14.4716C68.7998 14.677 68.6628 14.8703 68.4933 15.0516C68.3237 15.2328 68.1215 15.3959 67.8802 15.5409C67.6389 15.6799 67.3519 15.7947 67.0324 15.8732C66.7128 15.9578 66.341 15.994 65.9106 15.994H65.1475L64.6779 18.1569C64.6714 18.1931 64.6519 18.2234 64.6258 18.2536C64.5932 18.2777 64.5475 18.3019 64.4823 18.32C64.4171 18.3381 64.3388 18.3502 64.241 18.3563C64.1431 18.3684 64.0192 18.3684 63.8823 18.3684C63.7388 18.3684 63.6279 18.3684 63.5301 18.3563C63.4388 18.3502 63.367 18.3381 63.3149 18.32C63.2627 18.3019 63.2301 18.2777 63.2105 18.2536C63.1909 18.2294 63.1844 18.1931 63.1975 18.1569L64.5149 12.0731C64.5475 11.91 64.6192 11.7831 64.7366 11.7046C64.8475 11.62 64.9845 11.5777 65.1475 11.5777H66.7454C66.9411 11.5777 67.1171 11.5837 67.2672 11.5958C67.4237 11.6079 67.5737 11.6321 67.7237 11.6562C67.952 11.6985 68.1607 11.765 68.3433 11.8495C68.5259 11.9402 68.6759 12.0489 68.8063 12.1758C68.9368 12.3087 69.0346 12.4597 69.0998 12.641C69.165 12.8162 69.2042 13.0156 69.2042 13.2391ZM67.6454 13.3901C67.6454 13.227 67.5998 13.082 67.515 12.9551C67.4302 12.8343 67.2932 12.7497 67.1171 12.7014C67.0324 12.6772 66.9476 12.6591 66.8498 12.6531C66.7519 12.641 66.641 12.641 66.5237 12.641H65.8715L65.3758 14.9368H66.0541C66.2693 14.9368 66.4519 14.9126 66.6019 14.8643C66.7584 14.822 66.8889 14.7555 67.0063 14.683C67.1237 14.6045 67.2215 14.5139 67.2998 14.4112C67.3845 14.3024 67.4498 14.1937 67.5019 14.0789C67.5476 13.9641 67.5867 13.8493 67.6063 13.7285C67.6324 13.6137 67.6454 13.4989 67.6454 13.3901ZM75.4391 13.0518C75.4391 13.2814 75.4065 13.4989 75.3413 13.7164C75.2761 13.9399 75.1717 14.1453 75.0283 14.3387C74.8848 14.538 74.6956 14.7132 74.4739 14.8703C74.2456 15.0274 73.9652 15.1543 73.6391 15.2449C73.8217 15.3113 73.9717 15.4443 74.0956 15.6376C74.2195 15.837 74.3239 16.1028 74.4021 16.4471L74.6826 17.8186C74.7022 17.8971 74.7152 17.9636 74.7282 18.024C74.7413 18.0844 74.7478 18.1388 74.7478 18.1811C74.7478 18.2113 74.7348 18.2415 74.7087 18.2656C74.6826 18.2898 74.6435 18.3079 74.5717 18.3261C74.5065 18.3442 74.4217 18.3563 74.3108 18.3623C74.2 18.3684 74.0565 18.3684 73.8869 18.3684C73.7304 18.3684 73.6 18.3684 73.5086 18.3563C73.4173 18.3502 73.3391 18.3381 73.2869 18.314C73.2347 18.2959 73.2021 18.2717 73.1891 18.2415C73.1695 18.2113 73.1565 18.175 73.1499 18.1327L72.8695 16.6344C72.8434 16.4592 72.7978 16.3082 72.7456 16.1753C72.6999 16.0424 72.6282 15.9336 72.5499 15.843C72.4717 15.7524 72.3738 15.6859 72.263 15.6436C72.1456 15.6013 72.0086 15.5772 71.8456 15.5772H71.376L70.8216 18.1569C70.8216 18.1931 70.802 18.2234 70.7694 18.2536C70.7368 18.2777 70.6912 18.3019 70.6325 18.32C70.5673 18.3381 70.489 18.3502 70.3912 18.3563C70.2933 18.3684 70.1694 18.3684 70.0259 18.3684C69.8825 18.3684 69.7716 18.3684 69.6803 18.3563C69.5824 18.3502 69.5107 18.3381 69.4585 18.32C69.4063 18.3019 69.3737 18.2777 69.3542 18.2536C69.3346 18.2294 69.3281 18.1931 69.3411 18.1569L70.6716 12.0127C70.7042 11.8616 70.7694 11.7468 70.8673 11.6804C70.9716 11.6139 71.0955 11.5777 71.2325 11.5777H73.1891C73.5347 11.5777 73.8413 11.6079 74.1217 11.6683C74.3956 11.7287 74.6304 11.8193 74.8261 11.9402C75.0283 12.061 75.1783 12.2181 75.2826 12.3993C75.387 12.5866 75.4391 12.8041 75.4391 13.0518ZM73.8478 13.3116C73.8478 13.2149 73.8282 13.1243 73.7891 13.0397C73.7565 12.9551 73.6978 12.8826 73.6195 12.8162C73.5413 12.7558 73.4369 12.7135 73.313 12.6772C73.1825 12.641 73.0325 12.6289 72.8565 12.6289H72.0151L71.5977 14.5501H72.3086C72.5891 14.5501 72.8304 14.5139 73.026 14.4414C73.2217 14.3628 73.3782 14.2662 73.5021 14.1453C73.6195 14.0305 73.7108 13.8976 73.763 13.7526C73.8217 13.6076 73.8478 13.4626 73.8478 13.3116ZM81.4784 11.777C81.4784 11.8012 81.4784 11.8375 81.4719 11.8918C81.4654 11.9402 81.4524 12.0006 81.4458 12.067C81.4328 12.1275 81.4198 12.1939 81.4002 12.2664C81.3806 12.3389 81.3545 12.3993 81.3284 12.4597C81.3024 12.5141 81.2632 12.5624 81.2241 12.6047C81.185 12.641 81.1458 12.6591 81.1002 12.6591H78.4979L78.1392 14.3084H80.3502C80.4023 14.3084 80.4415 14.3266 80.461 14.3568C80.4871 14.393 80.4936 14.4414 80.4936 14.5018C80.4936 14.532 80.4936 14.5682 80.4871 14.6166C80.4806 14.6649 80.4741 14.7253 80.461 14.7918C80.4545 14.8522 80.4349 14.9186 80.4154 14.9851C80.3958 15.0516 80.3762 15.112 80.3436 15.1663C80.3175 15.2207 80.2849 15.2691 80.2458 15.3053C80.2067 15.3355 80.1675 15.3536 80.1219 15.3536H77.9109L77.5001 17.2567H80.1415C80.1871 17.2567 80.2197 17.2748 80.2393 17.3171C80.2654 17.3473 80.2784 17.4017 80.2784 17.4742C80.2784 17.4984 80.2719 17.5346 80.2719 17.589C80.2654 17.6434 80.2588 17.7038 80.2458 17.7642C80.2328 17.8307 80.2197 17.8971 80.2001 17.9636C80.1806 18.03 80.1545 18.0904 80.1284 18.1509C80.1023 18.2052 80.0697 18.2536 80.0306 18.2898C79.9914 18.32 79.9523 18.3381 79.9001 18.3381H76.2348C76.1761 18.3381 76.1174 18.3321 76.0718 18.314C76.0196 18.3019 75.9805 18.2717 75.9478 18.2354C75.9152 18.1992 75.8957 18.1569 75.8826 18.1025C75.8696 18.0482 75.8761 17.9817 75.8892 17.9032L77.1609 12.0127C77.1935 11.8616 77.2588 11.7468 77.3631 11.6804C77.4675 11.6139 77.5849 11.5777 77.7088 11.5777H81.3284C81.4263 11.5777 81.4784 11.6441 81.4784 11.777ZM86.4677 12.0973C86.4677 12.1275 86.4612 12.1697 86.4547 12.2241C86.4482 12.2725 86.4416 12.3329 86.4286 12.3933C86.4221 12.4537 86.4025 12.5202 86.3895 12.5866C86.3699 12.647 86.3503 12.7074 86.3242 12.7618C86.2982 12.8162 86.2721 12.8585 86.2395 12.8947C86.2068 12.931 86.1742 12.9491 86.1416 12.9491C86.0895 12.9491 86.0242 12.9249 85.946 12.8826C85.8677 12.8404 85.7699 12.792 85.6525 12.7377C85.5351 12.6893 85.4047 12.641 85.2481 12.5987C85.0981 12.5504 84.922 12.5322 84.7264 12.5322C84.5242 12.5322 84.3546 12.5564 84.2111 12.6108C84.0742 12.6591 83.9568 12.7316 83.8655 12.8162C83.7742 12.9008 83.709 12.9974 83.6698 13.1062C83.6242 13.2089 83.6046 13.3176 83.6046 13.4264C83.6046 13.5472 83.6372 13.662 83.7024 13.7587C83.7742 13.8553 83.859 13.9399 83.9763 14.0245C84.0872 14.103 84.2177 14.1816 84.3611 14.2601C84.5046 14.3387 84.6546 14.4172 84.8046 14.5018C84.9481 14.5803 85.0981 14.677 85.2416 14.7736C85.3851 14.8764 85.5155 14.9851 85.6329 15.118C85.7438 15.2509 85.8351 15.3959 85.9003 15.5651C85.9655 15.7342 86.0047 15.9336 86.0047 16.1511C86.0047 16.4774 85.9329 16.7794 85.7894 17.0634C85.646 17.3413 85.4438 17.583 85.1829 17.7944C84.9155 17.9998 84.6025 18.1629 84.2307 18.2777C83.859 18.3986 83.4481 18.459 82.9981 18.459C82.7502 18.459 82.5285 18.4408 82.3198 18.3986C82.1176 18.3684 81.9285 18.32 81.7719 18.2656C81.6154 18.2173 81.4784 18.1629 81.3741 18.1025C81.2632 18.0421 81.1784 17.9877 81.1263 17.9394C81.0741 17.885 81.048 17.8065 81.048 17.7038C81.048 17.6736 81.0545 17.6313 81.061 17.5769C81.0676 17.5165 81.0806 17.4561 81.0937 17.3957C81.1067 17.3292 81.1197 17.2628 81.1393 17.1963C81.1589 17.1298 81.1784 17.0634 81.2045 17.009C81.2306 16.9546 81.2632 16.9063 81.2958 16.8701C81.3284 16.8398 81.3611 16.8217 81.3937 16.8217C81.4589 16.8217 81.5371 16.8459 81.6219 16.9003C81.7132 16.9546 81.8241 17.0151 81.9545 17.0815C82.085 17.1419 82.2415 17.2084 82.4241 17.2628C82.6002 17.3171 82.8154 17.3473 83.0698 17.3473C83.2915 17.3473 83.4872 17.3171 83.6568 17.2688C83.8263 17.2144 83.9633 17.1419 84.0742 17.0513C84.1916 16.9607 84.2764 16.858 84.3351 16.7371C84.3938 16.6224 84.4198 16.4894 84.4198 16.3505C84.4198 16.2176 84.3872 16.1028 84.322 16.0122C84.2503 15.9095 84.1655 15.8249 84.0546 15.7403C83.9437 15.6557 83.8133 15.5772 83.6763 15.5047C83.5329 15.4322 83.3894 15.3597 83.2459 15.2751C83.0959 15.1905 82.9524 15.0999 82.8154 15.0032C82.672 14.9066 82.548 14.7918 82.4372 14.6589C82.3263 14.5259 82.235 14.3809 82.1698 14.2057C82.098 14.0366 82.0654 13.8372 82.0654 13.6137C82.0654 13.2995 82.1306 13.0095 82.2676 12.7437C82.4046 12.4839 82.5937 12.2543 82.8285 12.067C83.0698 11.8737 83.3568 11.7287 83.6894 11.62C84.022 11.5173 84.3938 11.4629 84.7916 11.4629C84.9807 11.4629 85.1633 11.475 85.3329 11.4991C85.5025 11.5293 85.659 11.5596 85.796 11.6018C85.9329 11.6381 86.0568 11.6864 86.1547 11.7348C86.2525 11.7831 86.3177 11.8254 86.3569 11.8556C86.396 11.8918 86.4221 11.9281 86.4416 11.9583C86.4547 12.0006 86.4677 12.0429 86.4677 12.0973ZM91.8353 12.0973C91.8353 12.1275 91.8353 12.1697 91.8288 12.2241C91.8222 12.2725 91.8157 12.3329 91.8027 12.3933C91.7896 12.4537 91.7766 12.5202 91.757 12.5866C91.744 12.647 91.7179 12.7074 91.6983 12.7618C91.6722 12.8162 91.6396 12.8585 91.6135 12.8947C91.5809 12.931 91.5483 12.9491 91.5157 12.9491C91.4635 12.9491 91.3983 12.9249 91.3135 12.8826C91.2353 12.8404 91.1374 12.792 91.0266 12.7377C90.9092 12.6893 90.7787 12.641 90.6222 12.5987C90.4657 12.5504 90.2961 12.5322 90.1004 12.5322C89.8983 12.5322 89.7222 12.5564 89.5852 12.6108C89.4417 12.6591 89.3309 12.7316 89.2395 12.8162C89.1482 12.9008 89.083 12.9974 89.0374 13.1062C88.9982 13.2089 88.9721 13.3176 88.9721 13.4264C88.9721 13.5472 89.0113 13.662 89.0765 13.7587C89.1417 13.8553 89.233 13.9399 89.3504 14.0245C89.4613 14.103 89.5917 14.1816 89.7352 14.2601C89.8787 14.3387 90.0287 14.4172 90.1722 14.5018C90.3222 14.5803 90.4722 14.677 90.6157 14.7736C90.7592 14.8764 90.8896 14.9851 91.0005 15.118C91.1179 15.2509 91.2092 15.3959 91.2744 15.5651C91.3396 15.7342 91.3787 15.9336 91.3787 16.1511C91.3787 16.4774 91.307 16.7794 91.1635 17.0634C91.02 17.3413 90.8179 17.583 90.557 17.7944C90.2896 17.9998 89.9765 18.1629 89.6048 18.2777C89.233 18.3986 88.8221 18.459 88.3656 18.459C88.1243 18.459 87.9026 18.4408 87.6939 18.3986C87.4851 18.3684 87.3025 18.32 87.146 18.2656C86.9895 18.2173 86.8525 18.1629 86.7416 18.1025C86.6373 18.0421 86.5525 17.9877 86.5003 17.9394C86.4482 17.885 86.4221 17.8065 86.4221 17.7038C86.4221 17.6736 86.4286 17.6313 86.4351 17.5769C86.4416 17.5165 86.4547 17.4561 86.4677 17.3957C86.4808 17.3292 86.4938 17.2628 86.5134 17.1963C86.5329 17.1298 86.5525 17.0634 86.5786 17.009C86.6047 16.9546 86.6373 16.9063 86.6634 16.8701C86.696 16.8398 86.7286 16.8217 86.7677 16.8217C86.833 16.8217 86.9047 16.8459 86.996 16.9003C87.0873 16.9546 87.1917 17.0151 87.3286 17.0815C87.4591 17.1419 87.6156 17.2084 87.7982 17.2628C87.9743 17.3171 88.1895 17.3473 88.4439 17.3473C88.6656 17.3473 88.8613 17.3171 89.0308 17.2688C89.1939 17.2144 89.3374 17.1419 89.4482 17.0513C89.5656 16.9607 89.6504 16.858 89.7026 16.7371C89.7678 16.6224 89.7939 16.4894 89.7939 16.3505C89.7939 16.2176 89.7613 16.1028 89.6896 16.0122C89.6243 15.9095 89.5396 15.8249 89.4222 15.7403C89.3178 15.6557 89.1874 15.5772 89.0504 15.5047C88.9069 15.4322 88.7634 15.3597 88.6134 15.2751C88.47 15.1905 88.3265 15.0999 88.183 15.0032C88.046 14.9066 87.9156 14.7918 87.8112 14.6589C87.6939 14.5259 87.6091 14.3809 87.5438 14.2057C87.4721 14.0366 87.4395 13.8372 87.4395 13.6137C87.4395 13.2995 87.5047 13.0095 87.6417 12.7437C87.7786 12.4839 87.9613 12.2543 88.2026 12.067C88.4439 11.8737 88.7308 11.7287 89.0635 11.62C89.3961 11.5173 89.7678 11.4629 90.1657 11.4629C90.3548 11.4629 90.5374 11.475 90.707 11.4991C90.8766 11.5293 91.0266 11.5596 91.17 11.6018C91.307 11.6381 91.4309 11.6864 91.5287 11.7348C91.6266 11.7831 91.6918 11.8254 91.7309 11.8556C91.7701 11.8918 91.7961 11.9281 91.8157 11.9583C91.8288 12.0006 91.8353 12.0429 91.8353 12.0973Z" fill="#ED3237"/>
</svg>
