<svg width="14" height="15" viewBox="0 0 14 15" fill="none" xmlns="http://www.w3.org/2000/svg">
<path d="M7.50701 0.843231C7.50719 0.382562 7.13389 0.00896957 6.67322 0.00878913C6.21256 0.008609 5.83896 0.381909 5.83878 0.842578L5.83617 7.51837C5.83599 7.97904 6.20929 8.35263 6.66996 8.35281C7.13063 8.35299 7.50422 7.9797 7.5044 7.51903L7.50701 0.843231Z" fill="#949494"/>
<path d="M0 8.33587C0 6.49322 0.746871 4.82501 1.9544 3.61745L3.13402 4.79707C2.22838 5.70274 1.66823 6.95389 1.66823 8.33587C1.66823 11.0999 3.90891 13.3406 6.67292 13.3406C9.43693 13.3406 11.6776 11.0999 11.6776 8.33587C11.6776 6.95386 11.1174 5.70268 10.2118 4.79701L11.3914 3.61739C12.5989 4.82496 13.3458 6.49319 13.3458 8.33587C13.3458 12.0212 10.3583 15.0088 6.67292 15.0088C2.98757 15.0088 0 12.0212 0 8.33587Z" fill="#949494"/>
</svg>
