<svg width="165" height="183" viewBox="0 0 165 183" fill="none" xmlns="http://www.w3.org/2000/svg">
<g filter="url(#filter0_f_26_1958)">
<ellipse cx="80.9028" cy="147.263" rx="59.0972" ry="13.7361" fill="#6088D7"/>
</g>
<path d="M81.6701 158.062C122.142 158.062 154.951 125.253 154.951 84.7812C154.951 44.3091 122.142 11.5 81.6701 11.5C41.198 11.5 8.38892 44.3091 8.38892 84.7812C8.38892 125.253 41.198 158.062 81.6701 158.062Z" fill="#6FCF97"/>
<path d="M118.008 21.083H44.2177C41.472 21.083 38.8389 22.1737 36.8974 24.1152C34.9559 26.0566 33.8652 28.6898 33.8652 31.4355V115.52H33.9918V145.048C33.9917 146.188 34.2838 147.309 34.8401 148.304C35.3965 149.299 36.1987 150.135 37.17 150.732C38.1413 151.329 39.2494 151.667 40.3886 151.714C41.5277 151.761 42.6599 151.515 43.677 151L77.7136 133.746C78.6409 133.281 79.664 133.039 80.7014 133.039C81.7388 133.039 82.7619 133.281 83.6892 133.746L118.773 151.127C119.79 151.631 120.92 151.867 122.055 151.813C123.189 151.758 124.291 151.415 125.256 150.815C126.221 150.216 127.017 149.38 127.568 148.387C128.119 147.393 128.408 146.276 128.406 145.14L128.314 115.52V31.4067C128.306 28.674 127.219 26.0551 125.288 24.1212C123.357 22.1873 120.74 21.0951 118.008 21.083Z" fill="url(#paint0_linear_26_1958)"/>
<path d="M164.278 48.3158C164.28 50.5537 163.469 52.7161 161.994 54.3998C160.52 56.0834 158.484 57.1735 156.265 57.4667C155.86 57.5184 155.451 57.5449 155.043 57.5462H124.339C123.673 57.5447 123.008 57.4899 122.351 57.3822C119.529 56.8952 116.986 55.3815 115.213 53.1324C113.44 50.8833 112.561 48.0579 112.746 45.1999C112.932 42.3419 114.167 39.6534 116.216 37.6519C118.264 35.6503 120.981 34.4772 123.842 34.3583C125.325 31.138 127.815 28.4873 130.937 26.8061C134.058 25.1248 137.641 24.5042 141.146 25.0377C144.651 25.5713 147.888 27.2302 150.368 29.7641C152.847 32.2981 154.436 35.5696 154.893 39.0854H155.033C156.246 39.0834 157.448 39.3207 158.569 39.7837C159.691 40.2467 160.71 40.9263 161.569 41.7836C162.428 42.6409 163.109 43.6592 163.574 44.78C164.039 45.9009 164.278 47.1024 164.278 48.3158Z" fill="#6FCF97"/>
<path d="M8.14929 30.2379C8.14929 32.0834 8.88245 33.8535 10.1875 35.1585C11.4925 36.4635 13.2625 37.1967 15.1081 37.1967H38.2115C40.4878 37.1846 42.6695 36.2843 44.2918 34.6874C45.9141 33.0905 46.8487 30.9233 46.8967 28.6474C46.9446 26.3716 46.1021 24.1669 44.5485 22.5031C42.9949 20.8393 40.8531 19.8479 38.5793 19.7399C37.4579 17.3244 35.5832 15.3378 33.2366 14.0784C30.8901 12.819 28.1983 12.3547 25.5655 12.7552C22.9326 13.1558 20.5007 14.3995 18.6349 16.2998C16.769 18.2 15.5699 20.6542 15.2175 23.2939H15.1131C13.2692 23.2926 11.5002 24.0231 10.1945 25.3251C8.88883 26.627 8.15324 28.394 8.14929 30.2379Z" fill="#6FCF97"/>
<g filter="url(#filter1_f_26_1958)">
<ellipse cx="84.169" cy="99.1422" rx="33.3118" ry="7.13825" fill="#60D7B2" fill-opacity="0.39"/>
</g>
<path d="M83.85 37.5666L92.04 54.1592C92.2829 54.6512 92.6417 55.0768 93.0856 55.3993C93.5294 55.7219 94.0449 55.9319 94.5878 56.0112L112.894 58.6511C113.514 58.746 114.096 59.0112 114.574 59.417C115.052 59.8228 115.408 60.3534 115.602 60.9496C115.797 61.5458 115.822 62.1843 115.675 62.7939C115.528 63.4035 115.214 63.9604 114.769 64.4024L101.541 77.3142C101.148 77.697 100.854 78.17 100.684 78.6921C100.515 79.2143 100.475 79.7698 100.569 80.3107L103.698 98.5425C103.805 99.1658 103.736 99.8067 103.498 100.393C103.259 100.979 102.862 101.486 102.35 101.858C101.838 102.23 101.233 102.451 100.602 102.496C99.9711 102.541 99.3402 102.409 98.7806 102.114L82.4064 93.487C81.9203 93.2321 81.3795 93.0989 80.8306 93.0989C80.2816 93.0989 79.7409 93.2321 79.2547 93.487L62.8806 102.114C62.3212 102.407 61.6909 102.538 61.061 102.492C60.431 102.446 59.8265 102.225 59.3157 101.853C58.8049 101.482 58.4081 100.975 58.1701 100.39C57.9321 99.805 57.8624 99.165 57.9689 98.5425L61.0919 80.3107C61.1857 79.7698 61.1462 79.2143 60.9768 78.6921C60.8075 78.17 60.5133 77.697 60.1199 77.3142L46.8918 64.4024C46.447 63.9604 46.1336 63.4035 45.9865 62.7939C45.8395 62.1843 45.8645 61.5458 46.0589 60.9496C46.2533 60.3534 46.6093 59.8228 47.0874 59.417C47.5655 59.0112 48.1469 58.746 48.7668 58.6511L67.0733 55.9939C67.6162 55.9146 68.1318 55.7047 68.5756 55.3821C69.0194 55.0595 69.3782 54.6339 69.6212 54.142L77.8111 37.5493C78.0961 36.9929 78.5295 36.5262 79.0634 36.2009C79.5972 35.8755 80.2107 35.7043 80.8359 35.7061C81.461 35.7079 82.0735 35.8826 82.6055 36.211C83.1375 36.5393 83.5682 37.0085 83.85 37.5666Z" fill="url(#paint1_linear_26_1958)"/>
<path d="M2.00001 119.209C1.99891 121.438 2.80807 123.591 4.27673 125.267C5.74539 126.943 7.77336 128.028 9.98279 128.32C10.3847 128.376 10.7899 128.404 11.1956 128.405H41.7648C42.4309 128.404 43.0958 128.349 43.753 128.241C46.5793 127.77 49.13 126.267 50.9103 124.022C52.6905 121.777 53.5734 118.951 53.3876 116.092C53.2019 113.233 51.9607 110.544 49.9049 108.549C47.849 106.553 45.1252 105.392 42.2619 105.292C40.7832 102.087 38.3031 99.4496 35.1952 97.777C32.0873 96.1045 28.5201 95.4873 25.0309 96.0184C21.5418 96.5496 18.3198 98.2003 15.8503 100.722C13.3809 103.243 11.7979 106.499 11.3398 109.999H11.1956C9.98678 109.999 8.7898 110.237 7.67317 110.7C6.55653 111.163 5.54215 111.842 4.68807 112.697C3.83398 113.553 3.15695 114.568 2.6957 115.686C2.23446 116.803 1.99805 118 2.00001 119.209Z" fill="#6FCF97"/>
<path d="M139.951 69.3935C139.636 68.1588 140.776 67.0463 142.003 67.391L145.299 68.3175C146.526 68.6622 146.92 70.2056 146.008 71.0956L143.557 73.4874C142.645 74.3774 141.112 73.9465 140.797 72.7118L139.951 69.3935Z" fill="#6088D7"/>
<path d="M17.8077 69.3935C17.4929 68.1588 18.6327 67.0463 19.8594 67.391L23.1561 68.3175C24.3828 68.6622 24.7764 70.2056 23.8645 71.0956L21.4138 73.4874C20.5019 74.3774 18.9685 73.9465 18.6537 72.7118L17.8077 69.3935Z" fill="#6088D7"/>
<path d="M57.9153 7.99866C58.4046 5.97173 61.2876 5.97173 61.7769 7.99867L62.0289 9.04263C62.2038 9.76697 62.7693 10.3325 63.4937 10.5074L64.5376 10.7594C66.5646 11.2487 66.5646 14.1318 64.5376 14.621L63.4937 14.8731C62.7693 15.0479 62.2038 15.6135 62.0289 16.3378L61.7769 17.3818C61.2876 19.4087 58.4046 19.4087 57.9153 17.3818L57.6633 16.3378C57.4884 15.6135 56.9229 15.0479 56.1985 14.8731L55.1545 14.621C53.1276 14.1318 53.1276 11.2487 55.1545 10.7594L56.1985 10.5074C56.9229 10.3325 57.4884 9.76697 57.6633 9.04263L57.9153 7.99866Z" fill="#6088D7"/>
<path d="M86.6291 144.88C86.6291 146.239 85.5278 147.34 84.1692 147.34C82.8107 147.34 81.7093 146.239 81.7093 144.88C81.7093 143.521 82.8107 142.42 84.1692 142.42C85.5278 142.42 86.6291 143.521 86.6291 144.88Z" stroke="white" stroke-width="2.48287"/>
<path d="M138.287 123.797C138.776 121.77 141.659 121.77 142.148 123.797L142.4 124.84C142.575 125.565 143.141 126.13 143.865 126.305L144.909 126.557C146.936 127.047 146.936 129.93 144.909 130.419L143.865 130.671C143.141 130.846 142.575 131.411 142.4 132.136L142.148 133.18C141.659 135.207 138.776 135.207 138.287 133.18L138.035 132.136C137.86 131.411 137.294 130.846 136.57 130.671L135.526 130.419C133.499 129.93 133.499 127.047 135.526 126.557L136.57 126.305C137.294 126.13 137.86 125.565 138.035 124.84L138.287 123.797Z" fill="#6088D7"/>
<circle cx="143.919" cy="102.579" r="2.45988" stroke="white" stroke-width="2.48287"/>
<defs>
<filter id="filter0_f_26_1958" x="0.032547" y="111.754" width="161.74" height="71.0186" filterUnits="userSpaceOnUse" color-interpolation-filters="sRGB">
<feFlood flood-opacity="0" result="BackgroundImageFix"/>
<feBlend mode="normal" in="SourceGraphic" in2="BackgroundImageFix" result="shape"/>
<feGaussianBlur stdDeviation="10.8865" result="effect1_foregroundBlur_26_1958"/>
</filter>
<filter id="filter1_f_26_1958" x="30.1666" y="71.3133" width="108.005" height="55.6575" filterUnits="userSpaceOnUse" color-interpolation-filters="sRGB">
<feFlood flood-opacity="0" result="BackgroundImageFix"/>
<feBlend mode="normal" in="SourceGraphic" in2="BackgroundImageFix" result="shape"/>
<feGaussianBlur stdDeviation="10.3453" result="effect1_foregroundBlur_26_1958"/>
</filter>
<linearGradient id="paint0_linear_26_1958" x1="151.407" y1="158.554" x2="38.0637" y2="56.7132" gradientUnits="userSpaceOnUse">
<stop stop-color="#2E469B"/>
<stop offset="1" stop-color="#2FAF87"/>
</linearGradient>
<linearGradient id="paint1_linear_26_1958" x1="51.5299" y1="53.6273" x2="176.656" y2="102.443" gradientUnits="userSpaceOnUse">
<stop stop-color="#60D7B2"/>
<stop offset="0.70369" stop-color="#BDFDE9"/>
</linearGradient>
</defs>
</svg>
