<svg width="18" height="18" viewBox="0 0 18 18" fill="none" xmlns="http://www.w3.org/2000/svg">
<path d="M10.9862 1.125L14.8888 3.375L14.1328 4.6935C14.3908 4.99837 14.6252 5.33231 14.8359 5.69531C15.0467 6.05831 15.2225 6.43331 15.3635 6.82031H16.8755V11.3203H15.3635C15.0823 12.1056 14.672 12.8145 14.1328 13.4471L14.8888 14.7656L10.9862 17.0156L10.2302 15.6971C9.40965 15.8494 8.58934 15.8494 7.76922 15.6971L7.01322 17.0156L3.11059 14.7656L3.86659 13.4471C3.59697 13.1306 3.35959 12.7937 3.15447 12.4363C2.94934 12.0789 2.77647 11.7069 2.63584 11.3203H1.12384V6.82031H2.63584C2.91709 6.03506 3.32734 5.32613 3.86659 4.6935L3.11059 3.375L7.01322 1.125L7.76922 2.4435C8.58972 2.29125 9.41003 2.29125 10.2302 2.4435L10.9862 1.125ZM11.408 2.65444L11.1971 3.006L10.8101 3.69169L10.0192 3.55106C9.33934 3.42206 8.65965 3.42206 7.98015 3.55106L7.18928 3.69169L6.59134 2.65444L4.65746 3.77944L5.2374 4.81669L4.72778 5.41463C4.28228 5.94188 3.94234 6.53362 3.70797 7.18987L3.44415 7.94588H2.24884V10.1959H3.42672L3.70797 10.9519C3.82534 11.2916 3.96597 11.6021 4.12984 11.8834C4.29372 12.1646 4.49303 12.4459 4.72778 12.7271L5.2374 13.3251L4.65746 14.3623L6.59134 15.4873L7.18928 14.4501L7.98015 14.5907C8.66003 14.7197 9.33972 14.7197 10.0192 14.5907L10.8101 14.4501L11.408 15.4873L13.3419 14.3623L12.762 13.3251L13.2716 12.7271C13.7171 12.1879 14.057 11.5961 14.2914 10.9519L14.5552 10.1959H15.7505V7.94588H14.5727L14.2914 7.18987C14.186 6.87337 14.0454 6.56569 13.8695 6.26681C13.6937 5.96794 13.4943 5.68369 13.2716 5.41406L12.762 4.81613L13.3419 3.77887L11.408 2.65444ZM8.99997 5.13281C10.1133 5.15644 11.042 5.54025 11.786 6.28425C12.53 7.02825 12.9138 7.95694 12.9375 9.07031C12.9138 10.1837 12.53 11.1124 11.786 11.8564C11.042 12.6004 10.1133 12.9842 8.99997 13.0078C7.88659 12.9842 6.9579 12.6004 6.2139 11.8564C5.4699 11.1124 5.08609 10.1837 5.06247 9.07031C5.08609 7.95694 5.4699 7.02825 6.2139 6.28425C6.9579 5.54025 7.88659 5.15644 8.99997 5.13281ZM8.99997 6.25781C8.20309 6.28144 7.54103 6.55687 7.01378 7.08413C6.48653 7.61137 6.21109 8.27344 6.18747 9.07031C6.21109 9.86719 6.48653 10.5293 7.01378 11.0565C7.54103 11.5837 8.20309 11.8592 8.99997 11.8828C9.79684 11.8592 10.4589 11.5837 10.9862 11.0565C11.5134 10.5293 11.7888 9.86719 11.8125 9.07031C11.7888 8.27344 11.5134 7.61137 10.9862 7.08413C10.4589 6.55687 9.79684 6.28144 8.99997 6.25781Z" fill="#747373" fill-opacity="0.96"/>
</svg>
