<svg width="31" height="30" viewBox="0 0 31 30" fill="none" xmlns="http://www.w3.org/2000/svg">
<path d="M21.9453 0.9375C19.3556 0.9375 17.0572 2.05266 15.5 3.96938C13.9428 2.05266 11.6444 0.9375 9.05469 0.9375C6.79911 0.940477 4.6367 1.91928 3.04177 3.6592C1.44684 5.39913 0.549604 7.75812 0.546875 10.2188C0.546875 20.3916 14.1864 28.5197 14.7665 28.8614C14.9919 28.9938 15.244 29.0632 15.5 29.0632C15.756 29.0632 16.0081 28.9938 16.2335 28.8614C16.8136 28.5197 30.4531 20.3916 30.4531 10.2188C30.4504 7.75812 29.5532 5.39913 27.9582 3.6592C26.3633 1.91928 24.2009 0.940477 21.9453 0.9375ZM21.2376 20.9569C19.4423 22.6188 17.5231 24.1146 15.5 25.4288C13.4769 24.1146 11.5577 22.6188 9.76238 20.9569C6.96898 18.3427 3.64062 14.3559 3.64062 10.2188C3.64062 8.65232 4.21103 7.15004 5.22637 6.0424C6.2417 4.93476 7.61879 4.3125 9.05469 4.3125C11.3492 4.3125 13.2699 5.63438 14.0679 7.76344C14.184 8.07381 14.3822 8.33941 14.6373 8.52637C14.8924 8.71333 15.1927 8.81318 15.5 8.81318C15.8073 8.81318 16.1076 8.71333 16.3627 8.52637C16.6178 8.33941 16.816 8.07381 16.9321 7.76344C17.7301 5.63438 19.6508 4.3125 21.9453 4.3125C23.3812 4.3125 24.7583 4.93476 25.7736 6.0424C26.789 7.15004 27.3594 8.65232 27.3594 10.2188C27.3594 14.3559 24.031 18.3427 21.2376 20.9569Z" fill="#CC4949"/>
</svg>
